<svg xmlns="http://www.w3.org/2000/svg" width="1728" height="159" fill="none"><g clip-path="url(#a)"><path fill="#000" d="M264.6 48.959v37.65h-13.413V60.2h-12.915v26.41H224.86V48.956h39.74v.003Z"/><path fill="#000" fill-rule="evenodd" d="M197.313 87.956c12.007 0 20.923-7.38 20.923-18.566 0-10.828-6.578-17.858-17.572-17.858-5.074 0-9.261 1.79-12.414 4.88.753-6.385 6.139-11.046 12.069-11.046 1.369 0 11.673-.022 11.673-.022l5.827-11.177s-12.936.295-18.95.295c-13.741.24-23.022 12.76-23.022 27.964 0 17.714 9.052 25.53 21.466 25.53Zm.073-26.524c4.458 0 7.549 2.936 7.549 7.956 0 4.519-2.746 8.242-7.549 8.252-4.594 0-7.684-3.45-7.684-8.175 0-5.021 3.09-8.033 7.684-8.033Z" clip-rule="evenodd"/><path fill="#000" d="M164.93 74.004s-3.168 1.83-7.899 2.177c-5.439.162-10.285-3.281-10.285-9.4 0-5.967 4.277-9.387 10.148-9.387 3.601 0 8.363 2.502 8.363 2.502s3.486-6.41 5.291-9.617c-3.306-2.511-7.709-3.888-12.83-3.888-12.925 0-22.936 8.447-22.936 20.315 0 12.02 9.409 20.27 22.936 20.021 3.78-.14 8.996-1.472 12.176-3.519l-4.964-9.204Z"/><path fill="#5B57A2" d="m0 38.52 18.606 33.335v20.333L.022 125.457 0 38.521Z"/><path fill="#D90751" d="m71.439 59.725 17.434-10.71 35.681-.034-53.115 32.615v-21.87Z"/><path fill="#FAB718" d="m71.34 38.324.099 44.134-18.65-11.486V5L71.34 38.324Z"/><path fill="#ED6F26" d="m124.554 48.981-35.682.033-17.532-10.69L52.79 5l71.764 43.981Z"/><path fill="#63B22F" d="M71.439 125.642V104.23l-18.65-11.268L52.8 159l18.64-33.358Z"/><path fill="#1487C9" d="M88.83 115.029 18.605 71.855 0 38.521l124.478 76.464-35.648.044Z"/><path fill="#017F36" d="m52.801 159 18.637-33.358 17.39-10.613 35.649-.044L52.801 159Z"/><path fill="#984995" d="m.022 125.458 52.92-32.494L35.15 82.022 18.606 92.188.022 125.458Z"/><path fill="#000" d="M146.75 111.949c-.41.523-.949.919-1.595 1.186a5.48 5.48 0 0 1-2.09.405 5.908 5.908 0 0 1-2.09-.351 4.65 4.65 0 0 1-1.616-1.004 4.538 4.538 0 0 1-1.055-1.571 5.366 5.366 0 0 1-.378-2.039c0-.693.119-1.335.366-1.943a4.602 4.602 0 0 1 1.013-1.571 4.975 4.975 0 0 1 1.53-1.056 4.842 4.842 0 0 1 1.95-.395c.766 0 1.476.096 2.123.287a3.867 3.867 0 0 1 1.648.963l-.787 1.334a3.71 3.71 0 0 0-1.314-.77 4.648 4.648 0 0 0-1.433-.223 3.337 3.337 0 0 0-2.295.929 3.135 3.135 0 0 0-.722 1.068 3.395 3.395 0 0 0-.268 1.387c0 .524.096.993.279 1.399.184.417.431.77.744 1.068.312.3.678.523 1.098.674.421.16.863.234 1.337.234a3.5 3.5 0 0 0 1.562-.342c.448-.217.85-.518 1.185-.886l.808 1.217Zm2.219 1.367v-9.504h1.703v7.081l5.537-7.081h1.703v9.505h-1.703v-7.08l-5.537 7.08-1.703-.001Zm20.223-1.367a3.86 3.86 0 0 1-1.594 1.186 5.49 5.49 0 0 1-2.091.405 5.899 5.899 0 0 1-2.089-.351 4.645 4.645 0 0 1-1.617-1.004 4.538 4.538 0 0 1-1.055-1.571 5.347 5.347 0 0 1-.378-2.039c0-.693.119-1.335.366-1.943a4.632 4.632 0 0 1 1.013-1.571c.431-.448.948-.789 1.53-1.056a4.64 4.64 0 0 1 1.95-.395c.765 0 1.476.096 2.122.287a3.88 3.88 0 0 1 1.65.963l-.788 1.334a3.683 3.683 0 0 0-1.313-.77 4.648 4.648 0 0 0-1.433-.223 3.329 3.329 0 0 0-2.296.929 3.254 3.254 0 0 0-.722 1.068 3.396 3.396 0 0 0-.269 1.387c0 .524.098.993.281 1.399.183.417.43.77.742 1.068.313.3.68.523 1.1.674.42.148.862.234 1.335.234.583 0 1.1-.118 1.562-.342a3.909 3.909 0 0 0 1.186-.886l.808 1.217Zm.873-8.137h8.737v1.688h-3.512v7.816h-1.703V105.5h-3.512v-1.688h-.01Z"/><path fill="#000" fill-rule="evenodd" d="M186.754 113.221a4.436 4.436 0 0 0 1.67-.94l-.517-1.324c-.313.278-.733.513-1.239.706a4.79 4.79 0 0 1-1.702.287c-.938 0-1.713-.245-2.328-.747-.613-.503-.947-1.206-1.023-2.104h7.37a5.19 5.19 0 0 0 .107-1.143c0-.652-.119-1.238-.356-1.772a4.195 4.195 0 0 0-.947-1.378 4.214 4.214 0 0 0-1.423-.886 4.72 4.72 0 0 0-1.735-.321c-.797 0-1.498.139-2.111.396a4.644 4.644 0 0 0-1.541 1.057 4.463 4.463 0 0 0-.958 1.57 5.476 5.476 0 0 0-.334 1.943c0 .748.129 1.431.366 2.04.23.591.583 1.126 1.034 1.57.442.436.98.768 1.616 1.003.682.242 1.4.361 2.123.352a6.437 6.437 0 0 0 1.928-.309Zm-4.309-7.315c.527-.48 1.227-.715 2.111-.715.83 0 1.498.224 1.983.674.485.447.743 1.067.786 1.857h-5.818a2.905 2.905 0 0 1 .938-1.816Z" clip-rule="evenodd"/><path fill="#000" d="M191.408 103.812h1.552l3.685 4.71 3.49-4.71h1.508v9.505h-1.701v-6.93l-3.319 4.409h-.065l-3.447-4.411v6.93h-1.703v-9.503Z"/><path fill="#000" fill-rule="evenodd" d="M206.276 103.845a5.356 5.356 0 0 0-1.465.628l.452 1.348a10.71 10.71 0 0 1 1.164-.492c.388-.14.883-.204 1.476-.204.474 0 .851.076 1.142.225.291.138.506.353.657.609.151.257.248.577.302.95.054.374.075.779.075 1.218a2.906 2.906 0 0 0-1.163-.481 6.674 6.674 0 0 0-1.228-.129c-.507 0-.981.076-1.434.203-.452.129-.84.321-1.153.578-.318.256-.576.58-.754.949a2.973 2.973 0 0 0-.28 1.293c0 .929.27 1.655.808 2.169.539.512 1.249.767 2.133.767.798 0 1.434-.139 1.918-.416.485-.278.873-.598 1.153-.961v1.228h1.594v-5.83c0-1.24-.268-2.2-.818-2.873-.539-.673-1.498-1.014-2.855-1.014-.604 0-1.175.084-1.724.235Zm2.846 7.7c-.388.277-.895.404-1.52.404-.549 0-.981-.139-1.282-.406-.302-.277-.453-.64-.453-1.089 0-.266.054-.491.173-.693.119-.203.28-.363.463-.492.201-.134.423-.232.657-.289.249-.064.496-.096.754-.096.842 0 1.562.203 2.155.63v1.207a4.961 4.961 0 0 1-.947.824Zm17.583-11.076c.344-.159.667-.426.969-.821l-.927-1.335c-.237.321-.506.544-.808.663-.32.125-.652.218-.991.277l-.323.058c-.28.048-.581.102-.905.156a6.67 6.67 0 0 0-1.508.47c-.766.331-1.379.779-1.843 1.345a6.341 6.341 0 0 0-1.078 1.912 10.021 10.021 0 0 0-.505 2.21 19.68 19.68 0 0 0-.13 2.21c0 .908.118 1.73.355 2.466.238.738.571 1.357 1.013 1.859.442.513.97.898 1.595 1.175s1.325.416 2.111.416a5.07 5.07 0 0 0 1.994-.395 4.75 4.75 0 0 0 2.564-2.606 4.807 4.807 0 0 0 .367-1.88c0-.714-.108-1.365-.313-1.943a4.207 4.207 0 0 0-.883-1.483 3.938 3.938 0 0 0-1.413-.963 4.906 4.906 0 0 0-1.852-.341c-.41 0-.808.054-1.196.16-.377.107-.74.261-1.078.46a4.113 4.113 0 0 0-.894.693 3.171 3.171 0 0 0-.625.908h-.043c.033-.437.087-.885.183-1.345a6.63 6.63 0 0 1 .421-1.314c.183-.415.42-.79.711-1.132a3.238 3.238 0 0 1 1.12-.8 5.917 5.917 0 0 1 1.476-.48l.338-.062c.337-.062.658-.121.966-.185a5.201 5.201 0 0 0 1.132-.353Zm-5.991 9.131a5.308 5.308 0 0 1-.237-1.665 2.69 2.69 0 0 1 .388-.908c.183-.289.42-.544.7-.77a3.543 3.543 0 0 1 2.219-.757c1.003 0 1.757.309 2.284.919.529.618.788 1.387.788 2.316 0 .46-.087.877-.237 1.261a3.047 3.047 0 0 1-.647 1.015 3.124 3.124 0 0 1-2.274.939 2.994 2.994 0 0 1-2.327-1.089 4.018 4.018 0 0 1-.657-1.261Zm20.999-5.788h-1.703v9.505h1.703v-9.505Zm-10.603 0h1.703v2.852h1.574c.742 0 1.345.096 1.83.277.486.182.874.428 1.164.727.291.299.496.651.615 1.045.118.396.183.801.183 1.229 0 .427-.065.834-.205 1.239a2.798 2.798 0 0 1-.658 1.078c-.301.321-.711.578-1.228.77-.517.192-1.142.298-1.896.298H231.1v-9.515h.01Zm1.703 4.442v3.482h1.239c.852 0 1.455-.149 1.799-.449.346-.299.518-.726.518-1.291 0-.578-.184-1.014-.528-1.315-.356-.299-.949-.449-1.767-.449h-1.261v.022Z" clip-rule="evenodd"/><path fill="#000" d="M252.972 111.949c-.41.523-.949.919-1.595 1.186a5.488 5.488 0 0 1-2.09.405 5.913 5.913 0 0 1-2.091-.351 4.635 4.635 0 0 1-1.616-1.004 4.582 4.582 0 0 1-1.056-1.571 5.387 5.387 0 0 1-.376-2.039c0-.693.118-1.335.366-1.943a4.587 4.587 0 0 1 1.013-1.571c.431-.448.947-.789 1.53-1.056a4.64 4.64 0 0 1 1.95-.395c.764 0 1.476.096 2.122.287a3.861 3.861 0 0 1 1.648.963l-.786 1.334a3.706 3.706 0 0 0-1.315-.77 4.642 4.642 0 0 0-1.432-.223 3.328 3.328 0 0 0-2.295.929c-.31.304-.555.667-.722 1.068a3.396 3.396 0 0 0-.269 1.387c0 .524.096.994.279 1.399.183.417.432.77.744 1.068.313.3.679.523 1.099.674a3.99 3.99 0 0 0 1.336.234c.582 0 1.099-.118 1.562-.342a3.909 3.909 0 0 0 1.186-.886l.808 1.217Zm.872-8.137h8.738v1.688h-3.513v7.816h-1.702V105.5h-3.512v-1.688h-.011Z"/><path fill="#000" fill-rule="evenodd" d="M266.138 103.814h-1.703v13.731h1.703v-4.666c.344.225.754.385 1.227.492.474.106.97.159 1.477.159.754 0 1.432-.139 2.047-.394a4.91 4.91 0 0 0 1.572-1.078 4.69 4.69 0 0 0 1.013-1.625 5.68 5.68 0 0 0 .356-2.017c0-.706-.108-1.357-.313-1.945a4.51 4.51 0 0 0-.883-1.515 3.826 3.826 0 0 0-1.39-.993 4.457 4.457 0 0 0-1.843-.364c-.667 0-1.292.129-1.885.385-.592.257-1.056.565-1.378.95v-1.12Zm1.185 1.762a3.33 3.33 0 0 1 1.584-.385c.495 0 .937.074 1.337.235.388.16.71.385.98.684.269.299.474.641.603 1.045.14.406.205.845.205 1.325 0 .513-.087.971-.237 1.399a3.07 3.07 0 0 1-.658 1.089c-.294.31-.65.553-1.045.715a3.415 3.415 0 0 1-1.39.267c-.462 0-.894-.053-1.303-.159a4.251 4.251 0 0 1-1.26-.578v-4.709c.301-.362.7-.672 1.184-.928Zm19.565-1.764h-1.703v9.505h1.703v-9.505Zm-10.613 0h1.703v2.852h1.572c.744 0 1.347.096 1.832.277.486.182.874.427 1.164.726.291.3.496.652.614 1.046.119.396.183.801.183 1.229 0 .427-.064.834-.204 1.239a2.806 2.806 0 0 1-.658 1.078c-.301.321-.711.578-1.228.77-.517.191-1.142.298-1.896.298h-3.092v-9.515h.01Zm1.715 4.442v3.482h1.239c.85 0 1.454-.149 1.799-.45.344-.299.517-.725.517-1.291 0-.577-.183-1.013-.527-1.314-.356-.299-.949-.449-1.767-.449h-1.261v.022Z" clip-rule="evenodd"/><path fill="#000" d="m295.055 108.394 3.641 4.923h-2.089l-2.813-3.845-2.855 3.845h-1.982l3.619-4.838-3.404-4.667h2.091l2.596 3.589 2.639-3.589h1.983l-3.426 4.582ZM145.49 125.063h-5.225v7.923h-1.703v-9.503h8.63v9.503h-1.702v-7.923Zm11.366.107h-3.361l-.109 1.601c-.118 1.357-.279 2.446-.506 3.278-.226.834-.507 1.474-.829 1.922-.323.449-.701.759-1.132.909a3.916 3.916 0 0 1-1.389.235l-.13-1.646c.184.011.399-.032.636-.138.238-.107.475-.341.7-.693.226-.365.431-.877.614-1.539.184-.672.303-1.548.367-2.649l.172-2.958h6.67v9.505h-1.703v-7.827Z"/><path fill="#000" fill-rule="evenodd" d="M163.149 123.505a5.322 5.322 0 0 0-1.466.629l.453 1.346a10.77 10.77 0 0 1 1.163-.491c.387-.139.884-.203 1.476-.203.475 0 .851.074 1.142.223.292.14.507.353.658.61.15.256.247.577.301.949.054.375.075.781.075 1.218a2.919 2.919 0 0 0-1.163-.48 6.76 6.76 0 0 0-1.228-.128c-.506 0-.981.074-1.433.203a3.162 3.162 0 0 0-1.154.577 2.76 2.76 0 0 0-.754.95 2.971 2.971 0 0 0-.279 1.292c0 .928.269 1.656.808 2.168.538.512 1.25.769 2.133.769.798 0 1.433-.139 1.918-.418.484-.277.872-.598 1.152-.961v1.228h1.596v-5.83c0-1.238-.271-2.199-.82-2.872-.539-.674-1.498-1.014-2.855-1.014a6.556 6.556 0 0 0-1.723.235Zm2.855 7.698c-.387.278-.894.406-1.519.406-.56 0-.98-.138-1.281-.406-.302-.278-.453-.641-.453-1.089 0-.267.053-.491.172-.694.118-.203.281-.363.464-.492.183-.128.408-.224.657-.288.246-.064.499-.096.754-.095.84 0 1.562.203 2.155.629v1.206c-.28.314-.599.59-.949.823Z" clip-rule="evenodd"/><path fill="#000" d="M170.215 123.483h8.738v1.687h-3.513v7.816h-1.702v-7.815h-3.512v-1.688h-.011Z"/><path fill="#000" fill-rule="evenodd" d="M186.905 132.89a4.434 4.434 0 0 0 1.67-.939l-.517-1.325c-.313.279-.733.514-1.24.706-.505.193-1.076.288-1.701.288-.937 0-1.713-.245-2.328-.747-.615-.502-.947-1.207-1.023-2.105h7.37a5.23 5.23 0 0 0 .107-1.142c0-.651-.119-1.238-.356-1.772a4.173 4.173 0 0 0-.948-1.377 4.187 4.187 0 0 0-1.422-.887 4.719 4.719 0 0 0-1.734-.321c-.798 0-1.498.139-2.112.395a4.632 4.632 0 0 0-1.541 1.058 4.476 4.476 0 0 0-.959 1.569 5.529 5.529 0 0 0-.334 1.943c0 .748.129 1.431.366 2.041a4.514 4.514 0 0 0 1.034 1.569c.442.438.981.769 1.617 1.004a6.109 6.109 0 0 0 2.122.353c.636 0 1.283-.108 1.929-.311Zm-4.32-7.325c.528-.48 1.228-.715 2.112-.715.841 0 1.498.235 1.983.673.484.449.743 1.067.786 1.858h-5.818a2.907 2.907 0 0 1 .937-1.816Zm7.488-2.082h2.155l3.285 4.582-3.512 4.921h-2.089l3.683-4.922-3.522-4.581Zm5.86 0h1.703v9.503h-1.703v-9.503Zm7.79 9.503-3.749-4.922 3.501-4.582h-2.112l-3.307 4.582 3.555 4.922h2.112Zm7.779-.096a4.43 4.43 0 0 0 1.669-.939l-.517-1.325c-.312.279-.732.514-1.238.706a4.769 4.769 0 0 1-1.703.288c-.937 0-1.713-.245-2.327-.747-.614-.502-.948-1.207-1.023-2.105h7.369c.076-.33.108-.704.108-1.142 0-.651-.118-1.238-.356-1.772a4.198 4.198 0 0 0-.948-1.377 4.187 4.187 0 0 0-1.422-.887 4.724 4.724 0 0 0-1.735-.321c-.796 0-1.497.139-2.111.395a4.632 4.632 0 0 0-1.54 1.058c-.426.45-.752.985-.959 1.569a5.503 5.503 0 0 0-.335 1.943c0 .748.13 1.431.367 2.041a4.472 4.472 0 0 0 1.034 1.569c.442.438.98.769 1.616 1.004.681.242 1.4.362 2.123.353a6.444 6.444 0 0 0 1.928-.311Zm-4.32-7.325c.529-.48 1.229-.715 2.113-.715.829 0 1.496.235 1.981.673.486.449.744 1.067.787 1.858h-5.818a2.902 2.902 0 0 1 .937-1.816Zm13.565-5.275c-1.002 0-1.552-.555-1.637-1.665h-1.606c0 .426.076.811.215 1.174.141.363.346.672.615.929s.614.459 1.012.619c.399.16.862.234 1.39.234.485 0 .916-.074 1.304-.234.388-.149.711-.362.991-.619a2.7 2.7 0 0 0 .635-.929c.151-.363.227-.748.227-1.174h-1.594c-.076 1.11-.604 1.665-1.552 1.665Zm-4.601 3.192v9.504h1.702l5.538-7.08v7.08h1.703v-9.504h-1.703l-5.538 7.08v-7.08h-1.702Z" clip-rule="evenodd"/><path fill="#8B3FFD" d="M412.882 44c-20.507 0-36.82 16.627-36.82 37 0 20.608 16.546 37 36.82 37s36.82-16.627 36.82-37c.233-20.373-16.546-37-36.82-37Zm0 50.816c-7.457 0-13.749-6.322-13.749-13.816 0-7.494 6.292-13.816 13.749-13.816 7.457 0 13.749 6.322 13.749 13.816 0 7.494-6.059 13.816-13.749 13.816ZM376.062 54.773v53.86h-13.283L346 54.773h30.062Z"/><path fill="#000" d="m686.702 64.374-8.156 20.139c-.233.234-.233.702-.233.936l-.234.469-.233-.469c0-.234-.233-.702-.233-.936l-8.156-20.14h-10.486l13.748 34.425-5.825 13.113h10.487l19.342-47.537h-10.021ZM609.333 66.247c-1.865-1.405-4.195-2.342-6.992-2.576-4.659-.468-9.087 1.17-12.116 4.215V64.14h-9.556v34.425h9.556V80.532c0-3.981.698-5.152 1.397-6.089 1.165-1.873 3.263-2.81 5.827-2.81 2.563 0 4.892 1.17 6.059 3.044.698 1.405.931 3.279.931 4.215v19.672h9.555V77.722c0-5.386-1.632-9.133-4.661-11.475ZM562.492 64.608c-4.66-1.64-9.787-1.405-14.448.702-3.03 1.405-5.825 3.747-7.457 6.791-1.632 2.576-2.33 5.855-2.33 9.368 0 3.512.698 6.79 2.33 9.367 1.632 2.576 3.729 4.917 6.524 6.322 2.797 1.406 6.059 2.342 9.089 2.342 1.632 0 3.262-.234 4.894-.702 1.398-.469 2.797-.937 4.195-1.64 2.797-1.639 5.127-3.746 6.526-6.323 1.63-2.575 2.33-5.854 2.33-9.366.232-7.728-4.195-14.285-11.653-16.861Zm2.797 17.329c-.233 3.044-1.165 5.62-3.03 7.26-1.398 1.17-3.495 1.873-6.059 2.107-2.563 0-4.427-.703-6.059-2.108-1.863-1.639-2.795-4.215-3.03-7.26-.232-3.512 1.167-6.322 3.729-8.195 1.398-.937 3.263-1.64 5.127-1.64 2.098 0 3.729.703 5.36 1.64 2.797 1.639 4.194 4.683 3.962 8.196ZM527.304 66.247c-1.865-1.405-4.195-2.342-6.992-2.576h-1.63c-3.729 0-6.992 1.639-9.788 4.917l-.466.703h-.932c-.7-1.17-1.632-2.107-2.564-2.81-1.865-1.405-4.195-2.342-6.992-2.576-4.427-.468-7.922.937-10.952 4.215v-3.512h-9.554V99.03h9.554v-18.5c0-3.746.466-4.683 1.165-5.854 1.166-1.873 3.263-3.044 5.593-2.81 2.331 0 4.428 1.171 5.593 3.044.933 1.405.933 3.045.933 4.684v19.202h9.554v-18.5c0-3.512.465-4.683 1.165-5.854 1.165-1.873 3.262-2.81 5.594-2.81 2.33 0 4.194 1.17 5.359 3.044.7 1.171.932 2.576.932 3.513V98.563h9.554V77.487c0-1.873-.232-3.747-.699-5.386-.931-2.341-2.33-4.45-4.427-5.854ZM649.882 88.26c-1.398 1.405-4.661 3.98-9.089 4.215-3.729.234-6.524-.937-8.621-3.044-.933-.937-1.632-2.342-2.098-3.747h26.333v-.234c.234-1.406.466-2.576.466-3.981 0-1.171-.232-2.81-.699-4.918-1.165-3.981-3.495-7.025-6.525-9.367-3.496-2.576-6.758-3.279-7.691-3.279-6.757-1.17-14.448 1.874-18.41 8.197-2.797 4.449-2.562 8.898-2.562 10.303 0 1.64.232 6.791 4.427 11.475 4.894 5.386 11.651 5.62 13.749 5.855 9.322.234 15.614-5.62 17.012-6.792l-6.292-4.683Zm-16.313-14.52c1.398-.936 3.03-1.638 5.127-1.638s3.729.702 5.36 1.639c1.399 1.17 2.564 2.576 3.262 4.215H630.54c.232-1.64 1.397-3.279 3.029-4.215Z"/><path fill="#0F754E" fill-rule="evenodd" d="M793.766 40.39c2.759-.017 10.96-.754 14.434 10.937 2.34 7.875 6.067 20.775 11.182 38.699h2.084c5.485-18.897 9.253-31.797 11.304-38.699 3.51-11.812 12.285-10.937 15.795-10.937h27.081v83.999h-27.602V74.887h-1.851l-15.386 49.502h-20.766L794.655 74.85h-1.851v49.539h-27.601v-84h28.563Zm121.514 0v49.539h2.202l18.716-40.736c3.633-8.106 11.377-8.803 11.377-8.803h26.709v84h-28.177V74.85h-2.202l-18.349 40.736c-3.633 8.07-11.744 8.804-11.744 8.804h-26.709v-84h28.177Zm156.4 39.917c-3.93 11.106-16.28 19.06-29.94 19.06h-29.55v25.023h-26.796V80.307h86.286Z" clip-rule="evenodd"/><path fill="url(#b)" fill-rule="evenodd" d="M1043.03 40.39h-59.041c1.405 18.7 17.561 34.71 34.271 34.71h55.28c3.19-15.543-7.79-34.71-30.51-34.71Z" clip-rule="evenodd"/><g clip-path="url(#c)"><path fill="#00579F" d="M1262.9 125.557h-25.03l15.65-96.802h25.03l-15.65 96.802ZM1353.64 31.121c-4.94-1.958-12.77-4.121-22.45-4.121-24.72 0-42.13 13.181-42.23 32.026-.21 13.903 12.46 21.626 21.93 26.262 9.69 4.737 12.98 7.829 12.98 12.052-.1 6.485-7.83 9.474-15.03 9.474-10 0-15.35-1.541-23.49-5.149l-3.29-1.547-3.51 21.73c5.87 2.675 16.69 5.048 27.92 5.152 26.26 0 43.36-12.977 43.57-33.06.1-11.019-6.59-19.463-21.02-26.362-8.75-4.43-14.11-7.416-14.11-11.948.1-4.12 4.53-8.34 14.42-8.34 8.13-.206 14.11 1.75 18.64 3.707l2.27 1.028 3.4-20.904ZM1386.91 91.264c2.06-5.562 9.99-27.085 9.99-27.085-.1.207 2.06-5.664 3.3-9.268l1.74 8.341s4.74 23.172 5.77 28.012h-20.8Zm30.9-62.51h-19.37c-5.97 0-10.5 1.75-13.08 8.032l-37.18 88.77h26.27l5.25-14.521h32.14c.72 3.399 2.98 14.521 2.98 14.521H1438l-20.19-96.801ZM1216.96 28.755l-24.51 66.01-2.68-13.388c-4.53-15.447-18.75-32.23-34.61-40.576l22.46 84.654h26.47l39.34-96.7h-26.47Z"/><path fill="#FAA61A" d="M1169.68 28.755h-40.27l-.41 1.956c31.42 8.033 52.22 27.396 60.77 50.67l-8.76-44.49c-1.44-6.182-5.87-7.932-11.33-8.136Z"/></g><g clip-path="url(#d)"><path fill="#FF5A00" d="M1636.85 16.364h-67.71v120.271h67.71V16.365Z"/><path fill="#EB001B" d="M1573.65 76.5c0-24.435 11.62-46.123 29.44-60.135C1589.97 6.165 1573.42 0 1555.37 0 1512.6 0 1478 34.215 1478 76.5s34.6 76.5 77.37 76.5c18.05 0 34.6-6.165 47.72-16.365a76.04 76.04 0 0 1-29.44-60.135Z"/><path fill="#F79E1B" d="M1728.19 76.5c0 42.285-34.61 76.5-77.37 76.5-18.06 0-34.61-6.165-47.73-16.365 18.06-14.037 29.45-35.7 29.45-60.135 0-24.435-11.62-46.123-29.45-60.135C1616.19 6.165 1632.74 0 1650.79 0c42.79 0 77.4 34.437 77.4 76.5Z"/></g></g><defs><clipPath id="a"><path fill="#fff" d="M0 0h1728v159H0z"/></clipPath><clipPath id="c"><path fill="#fff" d="M1129 27h309v100h-309z"/></clipPath><clipPath id="d"><path fill="#fff" d="M1478 0h250v153h-250z"/></clipPath><linearGradient id="b" x1="9993.34" x2="983.989" y1="2223.84" y2="2223.84" gradientUnits="userSpaceOnUse"><stop stop-color="#1F5CD7"/><stop offset="1" stop-color="#02AEFF"/></linearGradient></defs></svg>
